<svg xmlns="http://www.w3.org/2000/svg" width="799.973" height="897.811" viewBox="0 0 556 624">
  <defs>
    <style>
      .cls-1 {
        fill-rule: evenodd;
      }
    </style>
  </defs>
  <path class="cls-1" d="M321.258-352.939l27.31,33.632h0l-679.8,552.014h0l-27.311-33.632h0l679.8-552.014h0Zm42.1,51.85,27.31,33.632h0l-679.8,552.014h0l-27.31-33.632h0l679.8-552.014h0Zm40.6,53.073,27.31,33.633h0L-248.53,337.63h0L-275.84,304h0l679.8-552.014h0Zm42.1,51.85,27.31,33.632h0l-679.8,552.014h0l-27.31-33.632h0l679.8-552.014h0Zm42.1,51.85,27.31,33.632h0l-679.8,552.014h0l-27.31-33.632h0l679.8-552.014h0Zm40.6,53.074L556.07-57.61h0L-123.727,494.4h0l-27.31-33.633h0L528.76-91.242h0Zm42.1,51.85L598.174-5.76h0l-679.8,552.013h0l-27.31-33.632h0l679.8-552.014h0Zm42.1,51.85,27.31,33.632h0L-39.52,598.1h0l-27.31-33.632h0l679.8-552.014h0Zm40.6,53.074,27.31,33.632h0L1.076,651.177h0l-27.31-33.632h0l679.8-552.014h0Zm42.1,51.849,27.31,33.633h0L43.179,703.027h0l-27.31-33.633h0l679.8-552.014h0Zm42.1,51.85,27.31,33.632h0L85.283,754.876h0l-27.31-33.632h0L737.77,169.23h0Zm40.6,53.074,27.31,33.632h0L125.879,807.95h0L98.568,774.318h0L778.366,222.3h0Zm42.1,51.85,27.31,33.632h0L167.982,859.8h0l-27.31-33.633h0l679.8-552.013h0ZM862.572,326l27.311,33.633h0l-679.8,552.013h0l-27.31-33.632h0L862.572,326h0Zm42.1,51.85,27.31,33.632h0L252.189,963.5h0l-27.311-33.632h0l679.8-552.014h0Zm40.6,53.074,27.31,33.632h0l-679.8,552.011h0l-27.311-33.629h0l679.8-552.014h0Z"/>
</svg>
